# xmcd
#
# Track frame offsets: 
#        150
#        21466
#        39120
#        70170
#        91678
#        110874
#        139613
#        161481
#        180133
#        199443
#        229191
#        253412
#        274952
#        291289
#
# Disc length: 4154 seconds
#
# Revision: 0
# Processed by: cddbd v1.5.2PL0 Copyright (c) Steve Scherf et al.
# Submitted via: ExactAudioCopy v0.95a5
#
DISCID=cb10380e
DTITLE=Cheap Tobacco - Promises Of Tomorrow
DYEAR=2015
DGENRE=Blues
TTITLE0=Get Out
TTITLE1=Hard Love
TTITLE2=Promises of tomorrow
TTITLE3=Dwa swiaty
TTITLE4=Can't stp me
TTITLE5=Mesmerized
TTITLE6=Are You
TTITLE7=Gdybys wiedzial
TTITLE8=Damned Souls
TTITLE9=Huu
TTITLE10=Pretty Love
TTITLE11=Please
TTITLE12=Believer
TTITLE13=
EXTD=
EXTT0=
EXTT1=
EXTT2=
EXTT3=
EXTT4=
EXTT5=
EXTT6=
EXTT7=
EXTT8=
EXTT9=
EXTT10=
EXTT11=
EXTT12=
EXTT13=
PLAYORDER=
